<svg xmlns="http://www.w3.org/2000/svg" width="50" height="50" viewBox="0 0 50 50">
  <g id="Grupo_1" data-name="Grupo 1" transform="translate(0)">
    <path id="Trazado_12" data-name="Trazado 12" d="M418.284,58.071c0,.028.005.059.009.088,0,.056.013.112.018.166a6.967,6.967,0,0,0,.3,1.423.948.948,0,0,0,.161.34l.007,0h.015a2.15,2.15,0,0,0-.045-.662,7.057,7.057,0,0,1,.015-1.873.131.131,0,0,1,0-.016,6.454,6.454,0,0,1,2-3.14c1.771-1.405,4.444-2.146,7.56-2.608q.409-.06.835-.1l.05,0a33.608,33.608,0,0,1,5.942.216,31.006,31.006,0,0,1,9.3,3.1,26.067,26.067,0,0,1,2.8,1.671,33.435,33.435,0,0,1,4.428,3.91l.018.019q-.35,1.478-.822,2.963c-2.295,6.611-5.78,11.4-9.227,13.737a13.222,13.222,0,0,1-3.423,1.5,5.8,5.8,0,0,1-1.22.1,7.426,7.426,0,0,1-1.231-.037c-1.051-.111-.926.957-.174,1.161.274.075.544.153.777.225.72.183,1.447.337,2.179.453a24.7,24.7,0,0,0,4.48.279,24.2,24.2,0,0,0,14.413-5.273c.2,2,.632,2.56,1.532.733a7.711,7.711,0,0,0,.629-2.639,23.757,23.757,0,0,0,5.069-7.442c.731,2.417,1.066,4.008,2.329-.651a7.09,7.09,0,0,0-.745-4.761,23.489,23.489,0,0,0,.3-4.556c-.018-.582-.057-1.154-.118-1.725,1.382,1.783,3.1,3.277.257-4.988A14.527,14.527,0,0,0,461.6,42.7q-.678-.871-1.435-1.677c-.893-2.574-2.164-4.741-3.935-5.843-3.453-2.145-3.519-1.024-2.521.958a24.2,24.2,0,0,0-3.169-1.37,8.046,8.046,0,0,0-4.247-3.538c-3.041-.854-2.237.748-.948,2.342a24.738,24.738,0,0,0-3.608-.154,24.46,24.46,0,0,0-23.264,20.291A18.13,18.13,0,0,0,418.284,58.071Zm30.585-20.06a45.222,45.222,0,0,0-8.25-.526c-5.675.6-11.709,1.991-16.884,6.251a22.56,22.56,0,0,1,6.991-5.7,23.474,23.474,0,0,1,17.242-1.411c.137.168.279.347.431.55A8,8,0,0,1,448.869,38.012Zm3.595,9.793c-3.456-1.809-9.155-4.266-18.387-3.448a29.108,29.108,0,0,0-4.624.77c-4.194,1.039-7.454,2.926-9.053,5.25-.171.209-.321.4-.452.587a12.156,12.156,0,0,1,3.377-5.558,21.7,21.7,0,0,1,6.4-3.759,33.473,33.473,0,0,1,10.891-1.684c.717.023,1.458.067,2.221.136a35.031,35.031,0,0,1,5.785,1.007c.785.228,1.561.486,2.32.771A26.905,26.905,0,0,1,452.463,47.8Zm7.127,4.769A22.567,22.567,0,0,0,455.1,49.2l-.025-.013a28.252,28.252,0,0,0-.834-5.864,29.6,29.6,0,0,1,4.149,2.557c.269.823.5,1.682.7,2.567A32.734,32.734,0,0,1,459.591,52.573Zm2.269-2.853c-.022-.261-.045-.523-.074-.788.047.048.094.1.138.147A22.314,22.314,0,0,1,463.737,57c-.522-.666-1.083-1.318-1.655-1.943M459,67.267a29.845,29.845,0,0,0,2.01-5.636c.207-.76.383-1.52.533-2.274a20.036,20.036,0,0,1,1.671,3.331,25.582,25.582,0,0,1-3.607,7.929l-.038.049A21.972,21.972,0,0,0,459,67.267Zm-4.848-7.72c.193-.866.356-1.718.484-2.549q.084-.533.152-1.055c.158-1.234.252-2.42.3-3.543a27.488,27.488,0,0,1,4.486,4.233,31.972,31.972,0,0,1-1.58,7.992A26.789,26.789,0,0,0,454.154,59.547Zm-1.219,4.274q.226-.648.423-1.287a19.982,19.982,0,0,1,3.033,5.81,26.291,26.291,0,0,1-4.553,6.385,21.185,21.185,0,0,1-4.783,3.473A11.528,11.528,0,0,1,443.1,79.29q-.978.07-1.959.063a17.916,17.916,0,0,0,4.525-3.513A31.025,31.025,0,0,0,452.935,63.82Zm-34.1-7.969c.014-.168.029-.337.047-.5a9.915,9.915,0,0,1,.812-2.509,12.738,12.738,0,0,1,6.75-5.405c4.458-1.571,10.759-1.9,17.436-.325a30.284,30.284,0,0,1,8.828,3.667,36.355,36.355,0,0,1-.444,6.926,29.4,29.4,0,0,0-23-7.568c-4.515.441-7.28,1.75-8.886,3.474A4.664,4.664,0,0,0,418.833,55.851Z" transform="translate(-418.23 -30.995)" fill="#fff"/>
  </g>
</svg>
