<svg id="Grupo_349" data-name="Grupo 349" xmlns="http://www.w3.org/2000/svg" width="514.787" height="161.295" viewBox="0 0 514.787 161.295">
  <g id="Grupo_1" data-name="Grupo 1" transform="translate(0 69.158)">
    <path id="Trazado_1" data-name="Trazado 1" d="M88.694,97.673v40.86q0,7.6,2.853,11.214,3.031,3.417,9.691,3.414,6.463,0,9.688-3.414,3.038-3.424,3.045-11.214V97.673h13.495v42.379q0,12.171-6.848,18.436-6.265,6.27-19.381,6.269t-19.382-6.269q-6.844-6.273-6.842-18.436V104.894a7.078,7.078,0,0,1,1.9-4.937,6.492,6.492,0,0,1,4.94-2.284Z" transform="translate(-75.013 -97.673)" fill="#00457d" fill-rule="evenodd"/>
    <path id="Trazado_2" data-name="Trazado 2" d="M171.207,162.735h-6.654a5.926,5.926,0,0,1-6.46-6.46V130.435q0-4.563-2.847-6.654a9.889,9.889,0,0,0-12.165,0q-2.662,2.1-2.658,6.654v32.3h-13.3V133.091q0-12.915,6.651-17.292a29.993,29.993,0,0,1,15.015-4.745,28.594,28.594,0,0,1,15.389,4.366q7.028,4.376,7.032,17.672Z" transform="translate(-73.075 -97.175)" fill="#00457d" fill-rule="evenodd"/>
    <path id="Trazado_3" data-name="Trazado 3" d="M172.743,112.682h6.839a6.493,6.493,0,0,1,6.461,6.46v44.085h-13.3Zm0-14.826h6.839a6.5,6.5,0,0,1,6.461,6.465v3.991h-13.3Z" transform="translate(-71.378 -97.666)" fill="#00457d" fill-rule="evenodd"/>
    <path id="Trazado_4" data-name="Trazado 4" d="M217.28,162.695H203.792L186.115,112.15h14.061l10.073,35.539,8.932-30.978q1.52-4.56,6.081-4.562h9.88Z" transform="translate(-70.881 -97.135)" fill="#00457d" fill-rule="evenodd"/>
    <path id="Trazado_5" data-name="Trazado 5" d="M270.781,147.155h9.5a20.713,20.713,0,0,1-7.983,12.166q-5.886,4.37-14.823,4.365-10.826,0-16.911-7.026-6.078-6.844-6.083-19.574,0-12.158,5.894-19,6.08-7.037,16.915-7.031,11.4,0,17.671,6.837,6.081,7.032,6.083,19.577v2.086a3.339,3.339,0,0,1-.189,1.331H247.979q.188,5.895,2.85,8.74c1.646,2.032,4.118,3.039,7.411,3.039a10.752,10.752,0,0,0,5.51-1.327,2.321,2.321,0,0,0,.952-.571c.38-.379.758-.76,1.142-1.141a4.2,4.2,0,0,1,1.328-1.518A6.129,6.129,0,0,1,270.781,147.155Zm-22.8-14.82h19.383q-.383-5.131-2.66-7.6c-1.647-1.774-3.993-2.654-7.032-2.659a9.258,9.258,0,0,0-6.84,2.659Q248.162,127.393,247.979,132.335Z" transform="translate(-69.082 -97.175)" fill="#00457d" fill-rule="evenodd"/>
    <path id="Trazado_6" data-name="Trazado 6" d="M281.392,162.695V138.188a31.8,31.8,0,0,1,2.089-12.354,21.307,21.307,0,0,1,6.079-8.174,23.673,23.673,0,0,1,8.366-4.18,38.6,38.6,0,0,1,10.066-1.33h1.9v13.491h-4.369q-5.516,0-8.173,2.664t-2.664,8.361v26.028Z" transform="translate(-67.337 -97.135)" fill="#00457d" fill-rule="evenodd"/>
    <path id="Trazado_7" data-name="Trazado 7" d="M309.051,146.019h12.931a6.98,6.98,0,0,0,2.85,5.7,13.439,13.439,0,0,0,7.6,1.9,12.291,12.291,0,0,0,5.892-1.328,4.042,4.042,0,0,0,2.281-3.612q0-3.424-7.978-5.131a36.82,36.82,0,0,1-5.137-1.141q-10.064-2.469-13.493-5.893a11.67,11.67,0,0,1-3.8-9.12,15.127,15.127,0,0,1,5.51-11.973q5.7-4.37,14.824-4.366,9.878,0,15.769,4.366a16.712,16.712,0,0,1,5.893,12.355h-8.174a6.044,6.044,0,0,1-5.508-3.229c-.511-.511-1.014-1.018-1.521-1.522a10.24,10.24,0,0,0-6.271-1.707,11.273,11.273,0,0,0-5.7,1.136,3.833,3.833,0,0,0-1.715,3.422q0,3.034,9.887,5.128c.76.258,1.39.443,1.9.571a8.922,8.922,0,0,0,1.7.19q9.7,2.469,13.493,5.7a11.951,11.951,0,0,1,3.616,9.12q0,8.359-6.085,12.918-5.7,4.19-17.1,4.179-10.836,0-16.158-4.365-5.5-4.372-5.513-12.733Z" transform="translate(-66.308 -97.175)" fill="#00457d" fill-rule="evenodd"/>
    <path id="Trazado_8" data-name="Trazado 8" d="M383.618,137.274a35.631,35.631,0,0,1-7.415,2.471l-4.369.952a11.249,11.249,0,0,0-4.94,2.467,7.732,7.732,0,0,0-1.332,4.183,6.154,6.154,0,0,0,1.712,4.561,7.208,7.208,0,0,0,4.942,1.519c3.55,0,6.331-1.012,8.362-3.04s3.039-4.814,3.039-8.362Zm3.042,23.372a22.09,22.09,0,0,1-8.549,2.47,60.6,60.6,0,0,1-7.8.569,20.2,20.2,0,0,1-11.971-3.608q-5.134-3.8-5.13-12.347,0-7.986,4.562-11.406a27.6,27.6,0,0,1,11.967-4.56,16.88,16.88,0,0,0,2.281-.19,19.8,19.8,0,0,1,3.044-.571q8.353-1.139,8.36-4.94c0-1.9-1.009-3.1-3.043-3.609a16.984,16.984,0,0,0-5.317-.952,13.83,13.83,0,0,0-4.753.761,5.186,5.186,0,0,0-3.04,2.85h-12.73a14.607,14.607,0,0,1,5.318-9.693q5.133-4.37,14.632-4.366,10.645,0,15.963,3.606a12.2,12.2,0,0,1,5.51,10.645V142.6q0,7.609-2.85,11.976A16.444,16.444,0,0,1,386.66,160.646Z" transform="translate(-64.665 -97.175)" fill="#00457d" fill-rule="evenodd"/>
    <path id="Trazado_9" data-name="Trazado 9" d="M396.82,97.856h6.837a6.225,6.225,0,0,1,4.562,1.906,5.6,5.6,0,0,1,1.9,4.37v59.094h-13.3Z" transform="translate(-63.044 -97.666)" fill="#00457d" fill-rule="evenodd"/>
    <path id="Trazado_10" data-name="Trazado 10" d="M447.035,147.155h9.505a20.756,20.756,0,0,1-7.984,12.166q-5.895,4.37-14.821,4.365-10.828,0-16.911-7.026-6.088-6.844-6.082-19.574,0-12.158,5.891-19,6.08-7.037,16.914-7.031,11.407,0,17.673,6.837,6.081,7.032,6.081,19.577v2.086a3.343,3.343,0,0,1-.188,1.331H424.236q.184,5.895,2.845,8.74c1.651,2.032,4.125,3.039,7.419,3.039a10.733,10.733,0,0,0,5.506-1.327,2.409,2.409,0,0,0,.955-.571c.374-.379.755-.76,1.14-1.141a4.161,4.161,0,0,1,1.326-1.518A6.131,6.131,0,0,1,447.035,147.155Zm-22.8-14.82h19.381q-.381-5.131-2.655-7.6a9.157,9.157,0,0,0-7.035-2.659,9.272,9.272,0,0,0-6.845,2.659Q424.428,127.393,424.236,132.335Z" transform="translate(-62.526 -97.175)" fill="#00457d" fill-rule="evenodd"/>
    <path id="Trazado_11" data-name="Trazado 11" d="M456.548,146.019h12.92a7,7,0,0,0,2.852,5.7,13.467,13.467,0,0,0,7.6,1.9,12.3,12.3,0,0,0,5.892-1.328,4.039,4.039,0,0,0,2.281-3.612q0-3.424-7.982-5.131a36.578,36.578,0,0,1-5.129-1.141q-10.08-2.469-13.5-5.893a11.666,11.666,0,0,1-3.8-9.12A15.138,15.138,0,0,1,463.2,115.42q5.7-4.37,14.822-4.366,9.879,0,15.771,4.366a16.728,16.728,0,0,1,5.9,12.355H491.51A6.042,6.042,0,0,1,486,124.546c-.508-.511-1.016-1.018-1.52-1.522a10.233,10.233,0,0,0-6.272-1.707,11.287,11.287,0,0,0-5.7,1.136,3.837,3.837,0,0,0-1.707,3.422q0,3.034,9.882,5.128c.758.258,1.39.443,1.895.571a9.072,9.072,0,0,0,1.711.19q9.692,2.469,13.5,5.7a11.982,11.982,0,0,1,3.607,9.12q0,8.359-6.083,12.918-5.7,4.19-17.1,4.179-10.83,0-16.15-4.365-5.515-4.372-5.511-12.733Z" transform="translate(-60.822 -97.175)" fill="#00457d" fill-rule="evenodd"/>
  </g>
  <path id="Trazado_12" data-name="Trazado 12" d="M418.4,118.34c.01.091.017.189.03.285.014.179.042.361.058.536a22.787,22.787,0,0,0,.943,4.592,3.069,3.069,0,0,0,.51,1.1l.024-.007h.047a7.032,7.032,0,0,0-.143-2.137,23.133,23.133,0,0,1,.049-6.043.435.435,0,0,1,0-.053,20.872,20.872,0,0,1,6.342-10.129c5.624-4.534,14.114-6.923,24.01-8.414q1.3-.194,2.651-.335l.158-.005a105.1,105.1,0,0,1,18.873.7,97.427,97.427,0,0,1,29.532,10.015,82.513,82.513,0,0,1,8.888,5.391,106.715,106.715,0,0,1,14.063,12.612l.057.061q-1.113,4.768-2.612,9.559c-7.288,21.327-18.359,36.779-29.305,44.314a41.651,41.651,0,0,1-10.872,4.843,18.132,18.132,0,0,1-3.876.319,23.219,23.219,0,0,1-3.91-.118c-3.337-.357-2.943,3.088-.554,3.745.87.241,1.729.495,2.468.726,2.287.59,4.6,1.086,6.921,1.461a77.245,77.245,0,0,0,14.228.9,76.151,76.151,0,0,0,45.778-17.009c.648,6.445,2.006,8.259,4.864,2.365a25.187,25.187,0,0,0,2-8.514,76.707,76.707,0,0,0,16.1-24.006c2.321,7.8,3.384,12.93,7.4-2.1,1.229-4.623.132-9.927-2.365-15.358a76.918,76.918,0,0,0,.954-14.7c-.056-1.876-.183-3.724-.374-5.565,4.39,5.75,9.859,10.57.817-16.091a46.824,46.824,0,0,0-16.172-22.515q-2.153-2.81-4.556-5.41c-2.838-8.3-6.873-15.292-12.5-18.848-10.968-6.918-11.178-3.3-8.008,3.09a76.184,76.184,0,0,0-10.064-4.419c-3.533-5.37-7.964-9.833-13.488-11.413-9.659-2.756-7.1,2.413-3.012,7.556a77.366,77.366,0,0,0-11.461-.5,76.451,76.451,0,0,0-63.649,37.762A79.315,79.315,0,0,0,419,104.278,59.4,59.4,0,0,0,418.4,118.34Zm97.14-64.711c-10.94-1.343-20.655-2.294-26.2-1.7-18.023,1.944-37.19,6.423-53.624,20.165a71.893,71.893,0,0,1,22.2-18.383,73.508,73.508,0,0,1,54.762-4.552c.436.542.885,1.118,1.369,1.776A25.86,25.86,0,0,1,515.542,53.63Zm11.417,31.591c-10.976-5.834-29.078-13.76-58.4-11.123a91.156,91.156,0,0,0-14.688,2.483c-13.32,3.351-23.675,9.441-28.754,16.936-.545.673-1.02,1.306-1.435,1.893a39.323,39.323,0,0,1,10.727-17.929,68.709,68.709,0,0,1,20.342-12.125c9.867-3.531,21.582-5.372,34.591-5.433,2.276.075,4.63.215,7.055.438a109.7,109.7,0,0,1,18.374,3.25c2.494.736,4.958,1.569,7.369,2.487A87.924,87.924,0,0,1,526.959,85.221ZM549.6,100.6c-5.9-5.47-11.36-9.517-14.276-10.893l-.079-.041a92.448,92.448,0,0,0-2.648-18.915A93.788,93.788,0,0,1,545.771,79c.854,2.654,1.6,5.425,2.213,8.281A107.189,107.189,0,0,1,549.6,100.6Zm7.206-9.2c-.071-.842-.144-1.688-.237-2.541.151.156.3.315.44.475a72.93,72.93,0,0,1,5.758,25.549c-1.658-2.147-3.438-4.251-5.257-6.267M547.727,148a97.332,97.332,0,0,0,6.383-18.18c.658-2.451,1.216-4.9,1.691-7.336a65.055,65.055,0,0,1,5.309,10.744c-2.293,10.449-8.655,21.579-11.456,25.578l-.119.158A71.868,71.868,0,0,0,547.727,148Zm-15.4-24.9c.614-2.794,1.131-5.542,1.538-8.223q.266-1.719.481-3.4c.5-3.982.8-7.808.942-11.429A87.9,87.9,0,0,1,549.539,113.7a104.572,104.572,0,0,1-5.017,25.781A86.322,86.322,0,0,0,532.328,123.1Zm-3.871,13.786q.719-2.089,1.344-4.153a64.834,64.834,0,0,1,9.634,18.743,84.8,84.8,0,0,1-14.46,20.6,67.329,67.329,0,0,1-15.19,11.2,36.176,36.176,0,0,1-12.557,3.512q-3.1.227-6.221.2A57.022,57.022,0,0,0,505.38,175.66C514.03,167.018,522.534,154.205,528.458,136.885ZM420.145,111.178c.046-.54.092-1.088.148-1.624a32.316,32.316,0,0,1,2.579-8.094c2.981-5.212,9.163-12.707,21.438-17.436,14.159-5.068,34.17-6.133,55.378-1.05A95.37,95.37,0,0,1,527.724,94.8a119.059,119.059,0,0,1-1.409,22.343c-15.488-14.129-39.847-27.711-73.064-24.412-14.339,1.424-23.121,5.644-28.224,11.208C421.739,106.819,421.2,108.578,420.145,111.178Z" transform="translate(-62.247 -30.995)" fill="#00457d"/>
</svg>
